# xmcd
#
# Track frame offsets:
#	150
#	23682
#	41585
#	64320
#	86515
#	104892
#	128637
#	145175
#	164975
#	188995
#	204670
#	227105
#	244485
#
# Disc length: 3507 seconds
#
# Revision: 3
# Processed by: cddbd v1.5.2PL0 Copyright (c) Steve Scherf et al.
# Submitted via: dBpowerAMP V4.0
#
DISCID=c50db10d
DTITLE=Doug Macleod - You Can't Take my Blues
DYEAR=1996
DGENRE=Blues
TTITLE0=One Good Woman
TTITLE1=Bus With no Destination
TTITLE2=You Can't Take my Blues
TTITLE3=Things'll be Better, You'll See
TTITLE4=Papa John
TTITLE5=Hey Bartender
TTITLE6=Another Funny Deal Goin' Down
TTITLE7=Walkin' my Way Back to You
TTITLE8=All I Had Was The Blues
TTITLE9=Runnin' With Carey
TTITLE10=Chill on Cold
TTITLE11=Handle it Yourself
TTITLE12=Sometimes I Wonder
EXTD=
EXTT0=
EXTT1=
EXTT2=
EXTT3=
EXTT4=
EXTT5=
EXTT6=
EXTT7=
EXTT8=
EXTT9=
EXTT10=
EXTT11=
EXTT12=
PLAYORDER=
